<svg width="129" height="91" viewBox="0 0 129 91" fill="none" xmlns="http://www.w3.org/2000/svg">
<g id="Vector 1" filter="url(#filter0_d_37_84)">
<path d="M52.8249 72.7022L24.3081 42.7601C21.9081 40.2401 21.9452 36.2691 24.3919 33.7945C26.9736 31.1832 31.2132 31.2571 33.7023 33.9568L52.8752 54.751C58.698 61.0662 68.6246 61.2111 74.6292 55.0687L95.4788 33.7407C97.968 31.1944 102.106 31.3338 104.418 34.0418C106.448 36.4194 106.336 39.9514 104.158 42.1949L74.4509 72.8042C68.5202 78.9149 58.6978 78.8686 52.8249 72.7022Z" fill="white"/>
<path d="M52.8249 72.7022L24.3081 42.7601C21.9081 40.2401 21.9452 36.2691 24.3919 33.7945C26.9736 31.1832 31.2132 31.2571 33.7023 33.9568L52.8752 54.751C58.698 61.0662 68.6246 61.2111 74.6292 55.0687L95.4788 33.7407C97.968 31.1944 102.106 31.3338 104.418 34.0418C106.448 36.4194 106.336 39.9514 104.158 42.1949L74.4509 72.8042C68.5202 78.9149 58.6978 78.8686 52.8249 72.7022Z" stroke="white" stroke-width="5"/>
</g>
<defs>
<filter id="filter0_d_37_84" x="0.0322266" y="0.383026" width="128.337" height="90.4743" filterUnits="userSpaceOnUse" color-interpolation-filters="sRGB">
<feFlood flood-opacity="0" result="BackgroundImageFix"/>
<feColorMatrix in="SourceAlpha" type="matrix" values="0 0 0 0 0 0 0 0 0 0 0 0 0 0 0 0 0 0 127 0" result="hardAlpha"/>
<feOffset dy="-9"/>
<feGaussianBlur stdDeviation="10"/>
<feComposite in2="hardAlpha" operator="out"/>
<feColorMatrix type="matrix" values="0 0 0 0 1 0 0 0 0 1 0 0 0 0 1 0 0 0 1 0"/>
<feBlend mode="normal" in2="BackgroundImageFix" result="effect1_dropShadow_37_84"/>
<feBlend mode="normal" in="SourceGraphic" in2="effect1_dropShadow_37_84" result="shape"/>
</filter>
</defs>
</svg>
