<svg width="337" height="85" viewBox="0 0 337 85" fill="none" xmlns="http://www.w3.org/2000/svg">
<path d="M4.36916 53.0105L1.54534 50.5397C1.5152 50.5133 1.48788 50.4838 1.46385 50.4518C1.0992 49.9656 1.63859 49.3193 2.18218 49.5911L3 50L6.5 51.5L11 53L14.7968 54.139C15.5975 54.3793 16.4169 54.5521 17.2465 54.6558L24 55.5H35C35.4 55.5 37.5 54.8333 38.5 54.5L40.6532 53.6925C41.8791 53.2328 43.0396 52.6146 44.105 51.8536L46 50.5L47.4531 49.2891C48.4643 48.4464 49.2205 47.3385 49.6368 46.0897C49.8773 45.368 50 44.6121 50 43.8513V41.2374C50 40.747 49.9516 40.2578 49.8554 39.7769C49.6219 38.6093 49.1118 37.5148 48.368 36.585L47.5 35.5C46.5162 34.5162 45.298 33.7994 43.9603 33.4172L42.5 33L40.0703 32.5951C39.7412 32.5402 39.5 32.2555 39.5 31.9218C39.5 31.6633 39.6461 31.427 39.8773 31.3114L43.5 29.5L47.5 28L52.4408 26.7648C53.146 26.5885 53.8631 26.4637 54.5863 26.3914L58.5 26H66L70.3772 26.3367C71.7853 26.445 73.1711 26.7517 74.4936 27.2476L76.5 28L81.608 30.3218C81.8672 30.4396 82.1031 30.6031 82.3045 30.8045C82.7498 31.2498 83 31.8538 83 32.4836V51.9689C83 54.4616 81.6643 56.7633 79.5 58L74.5 60.5L70 62.5L66 64L62.9091 65.0303C61.972 65.3427 61.0063 65.5617 60.0262 65.6842L53.5 66.5H38.5L34.5 66L26 64L18 61L12.5 58L6.80464 54.7455C5.93705 54.2497 5.12117 53.6685 4.36916 53.0105Z" fill="url(#paint0_linear_39_141)"/>
<path d="M280 80.5V13H282.5L288 14.5L294.5 16.5L303.5 19L310 21.5L318.5 25.5L327.5 31L334.5 37L336.5 40.5V53L334.5 56.5L330.5 60L322.5 66L310.5 72L300 76L291.5 78.5L284 80.5H280Z" fill="url(#paint1_linear_39_141)"/>
<path d="M123.699 66.325H119.344C115.617 66.325 112.974 65.4367 111.414 63.66C109.854 61.84 109.074 58.915 109.074 54.885V27.195C109.074 23.5983 110.374 20.9983 112.974 19.395C115.574 17.7483 119.04 16.925 123.374 16.925C127.707 16.925 131.152 17.7483 133.709 19.395C136.265 20.9983 137.544 23.5983 137.544 27.195V33.24C137.544 37.4867 135.854 40.13 132.474 41.17C136.287 42.08 138.194 44.7667 138.194 49.23V56.055C138.194 59.6517 136.872 62.2733 134.229 63.92C131.585 65.5233 128.075 66.325 123.699 66.325ZM125.974 43.51H117.849C116.982 43.51 116.549 42.7517 116.549 41.235C116.549 39.7183 116.982 38.96 117.849 38.96H125.324C130.004 38.96 132.344 37.0533 132.344 33.24V26.545C132.344 23.165 129.332 21.475 123.309 21.475C117.285 21.475 114.274 23.165 114.274 26.545V54.885C114.274 57.3983 114.642 59.175 115.379 60.215C116.159 61.255 117.48 61.775 119.344 61.775H123.569C129.852 61.775 132.994 60.085 132.994 56.705V49.23C132.994 45.4167 130.654 43.51 125.974 43.51ZM166.334 66H158.729C154.916 66 152.164 65.22 150.474 63.66C148.784 62.1 147.939 59.4567 147.939 55.73V55.21C147.939 51.5267 148.697 48.9917 150.214 47.605C151.731 46.2183 154.439 45.33 158.339 44.94L169.584 43.835V36.62C169.584 33.24 166.637 31.55 160.744 31.55H151.839C150.972 31.55 150.539 30.7917 150.539 29.275C150.539 27.7583 150.972 27 151.839 27H160.744C164.991 27 168.392 27.8233 170.949 29.47C173.506 31.0733 174.784 33.6733 174.784 37.27V56.445C174.784 59.2617 175.282 61.4933 176.279 63.14C176.582 63.66 176.734 63.985 176.734 64.115C176.734 64.635 176.322 65.1983 175.499 65.805C174.676 66.3683 173.982 66.65 173.419 66.65C172.466 66.65 171.577 65.7617 170.754 63.985C169.974 62.165 169.584 59.8683 169.584 57.095V48.385L158.729 49.49C156.389 49.75 154.872 50.27 154.179 51.05C153.486 51.83 153.139 53.2167 153.139 55.21V55.73C153.139 57.81 153.486 59.2833 154.179 60.15C154.916 61.0167 156.432 61.45 158.729 61.45H166.334C167.201 61.45 167.634 62.2083 167.634 63.725C167.634 65.2417 167.201 66 166.334 66ZM192.954 35.645V57.355C192.954 60.735 195.727 62.425 201.274 62.425C206.821 62.425 209.594 60.735 209.594 57.355V54.625C209.594 53.6283 210.461 53.13 212.194 53.13C213.927 53.13 214.794 53.6283 214.794 54.625V56.705C214.794 60.3017 213.559 62.9233 211.089 64.57C208.662 66.1733 205.391 66.975 201.274 66.975C197.201 66.975 193.929 66.1733 191.459 64.57C188.989 62.9233 187.754 60.3017 187.754 56.705V36.295C187.754 32.6983 188.989 30.0983 191.459 28.495C193.929 26.8483 197.201 26.025 201.274 26.025C205.391 26.025 208.662 26.8483 211.089 28.495C213.559 30.0983 214.794 32.6983 214.794 36.295V38.375C214.794 39.3717 213.927 39.87 212.194 39.87C210.461 39.87 209.594 39.3717 209.594 38.375V35.645C209.594 32.265 206.821 30.575 201.274 30.575C195.727 30.575 192.954 32.265 192.954 35.645ZM231.675 15.495V64.83C231.675 65.8267 230.808 66.325 229.075 66.325C227.341 66.325 226.475 65.8267 226.475 64.83V15.495C226.475 14.4983 227.341 14 229.075 14C230.808 14 231.675 14.4983 231.675 15.495ZM254.295 65.155C254.295 65.935 253.536 66.325 252.02 66.325C250.503 66.325 249.593 65.8267 249.29 64.83L245.455 51.635C245.021 50.1183 244.458 49.165 243.765 48.775C243.115 48.3417 241.62 48.125 239.28 48.125H235.185C234.318 48.125 233.885 47.3667 233.885 45.85C233.885 44.3333 234.318 43.575 235.185 43.575H237.655C239.475 43.5317 240.666 43.315 241.23 42.925C241.793 42.4917 242.335 41.5383 242.855 40.065L247.21 28.17C247.556 27.1733 248.466 26.675 249.94 26.675C251.456 26.675 252.215 27.065 252.215 27.845C252.215 27.8883 251.998 28.56 251.565 29.86L247.34 41.885C246.95 42.9683 246.408 43.7917 245.715 44.355C247.708 45.0917 249.116 46.9117 249.94 49.815L253.84 63.4C254.143 64.5267 254.295 65.1117 254.295 65.155Z" fill="url(#paint2_linear_39_141)"/>
<defs>
<linearGradient id="paint0_linear_39_141" x1="79.5" y1="27" x2="9" y2="59" gradientUnits="userSpaceOnUse">
<stop stop-color="#FFC700"/>
<stop offset="1" stop-color="#FF0000"/>
</linearGradient>
<linearGradient id="paint1_linear_39_141" x1="189.5" y1="47" x2="345" y2="47" gradientUnits="userSpaceOnUse">
<stop stop-color="#FF0000"/>
<stop offset="1" stop-color="#FF7A00"/>
<stop offset="1"/>
</linearGradient>
<linearGradient id="paint2_linear_39_141" x1="179" y1="0" x2="179" y2="85" gradientUnits="userSpaceOnUse">
<stop stop-color="#FF8A00"/>
<stop offset="1" stop-color="white"/>
</linearGradient>
</defs>
</svg>
