<svg width="406" height="384" viewBox="0 0 406 384" fill="none" xmlns="http://www.w3.org/2000/svg">
<rect x="1.5" y="1.5" width="403" height="381" rx="190.5" fill="url(#paint0_linear_43_10)"/>
<path d="M220.965 311H177.755V204.318H143V161.598H177.755V121.446C177.755 119.766 179.008 113.12 179.634 110.008C180.104 106.74 182.969 97.8689 190.671 88.5313C203.188 73.3577 214.624 72.1127 220.26 72.1905C241.16 72.1905 258.491 71.3034 263 73.3577V111.642C262.922 112.187 258.444 112.949 241.16 111.642C223.877 110.335 220.495 122.614 220.965 128.917V161.598H259.712L254.546 204.318H220.965V311Z" fill="url(#paint1_linear_43_10)"/>
<rect x="1.5" y="1.5" width="403" height="381" rx="190.5" stroke="url(#paint2_linear_43_10)" stroke-width="3"/>
<defs>
<linearGradient id="paint0_linear_43_10" x1="67.5" y1="42" x2="321.5" y2="341.5" gradientUnits="userSpaceOnUse">
<stop stop-color="#4200FF" stop-opacity="0.4"/>
<stop offset="0.979167" stop-color="#010002" stop-opacity="0.1"/>
</linearGradient>
<linearGradient id="paint1_linear_43_10" x1="143" y1="311" x2="261.57" y2="9.93686" gradientUnits="userSpaceOnUse">
<stop stop-color="#8000FF" stop-opacity="0.72"/>
<stop offset="1" stop-color="#4200FF"/>
</linearGradient>
<linearGradient id="paint2_linear_43_10" x1="106" y1="22" x2="303" y2="365" gradientUnits="userSpaceOnUse">
<stop stop-opacity="0"/>
<stop offset="1" stop-color="#4200FF" stop-opacity="0.4"/>
<stop offset="1" stop-color="#4200FF"/>
</linearGradient>
</defs>
</svg>
