<svg width="223" height="191" viewBox="0 0 223 191" fill="none" xmlns="http://www.w3.org/2000/svg">
<path d="M87.4883 129.015L84.5129 172.168C84.4617 172.911 85.1312 173.01 85.9398 172.855C87.2996 172.595 88.4297 171.702 89.4644 170.782L109.128 153.299C114.524 148.502 122.564 148.228 128.305 152.606C141.307 162.523 159.094 175.836 168.185 181.782C179.944 189.472 184.014 181.593 184.58 176.692C195.321 126.176 217.031 22.882 217.935 13.8344C218.84 4.7867 210.021 4.40971 205.498 5.35218C141.99 27.9713 13.7311 74.7929 8.75598 81.1263C5.9767 84.6644 5.06762 87.3083 5.00369 89.1173C4.93372 91.0967 6.90343 92.1718 8.79559 92.7571L54.2113 106.806C58.375 108.094 62.8698 107.522 66.5671 105.214C105.17 81.1221 173.091 38.8742 176.1 37.5845C179.361 36.1865 179.029 40.7193 176.395 43.0968L92.402 118.913C89.5172 121.516 87.7556 125.138 87.4883 129.015Z" stroke="url(#paint0_linear_37_126)" stroke-width="10"/>
<defs>
<linearGradient id="paint0_linear_37_126" x1="103.069" y1="4.05192" x2="103.069" y2="185" gradientUnits="userSpaceOnUse">
<stop stop-color="#0057FF" stop-opacity="0.33"/>
<stop offset="0.702259" stop-color="#0057FF"/>
</linearGradient>
</defs>
</svg>
