<svg width="51" height="94" viewBox="0 0 51 94" fill="none" xmlns="http://www.w3.org/2000/svg">
<path d="M27.4741 93.2472L10.5954 92.014L13.6205 50.612L0.0441648 49.6201L1.25551 33.0411L14.8318 34.0331L15.9704 18.4508C16.018 17.7985 16.6957 15.2553 17.0286 14.0652C17.3047 12.8103 18.6754 9.44944 21.949 6.04547C27.2685 0.51404 31.7712 0.357274 33.9706 0.548334C42.1347 1.14484 48.9297 1.29523 50.6327 2.22116L49.5471 17.0787C49.5011 17.2879 47.7304 17.4561 41.016 16.4554C34.3016 15.4548 32.6325 20.1236 32.6372 22.583L31.7105 35.2664L46.8463 36.3723L43.6169 52.8037L30.4992 51.8453L27.4741 93.2472Z" fill="url(#paint0_linear_146_3)"/>
<defs>
<linearGradient id="paint0_linear_146_3" x1="-2.9809" y1="91.022" x2="51.367" y2="-22.6741" gradientUnits="userSpaceOnUse">
<stop stop-color="#8000FF" stop-opacity="0.72"/>
<stop offset="1" stop-color="#4200FF"/>
</linearGradient>
</defs>
</svg>
