<svg width="65" height="79" viewBox="0 0 65 79" fill="none" xmlns="http://www.w3.org/2000/svg">
<path d="M12.8756 53.2562C3.3508 39.3773 2.26273 22.1286 3.42803 14.8991C3.57753 13.9716 3.70289 13.0366 3.89198 12.1164C4.74459 7.9669 8.14041 5.11702 11.4051 3.28386C15.2083 1.14826 20.8571 4.88245 23.1606 8.58642C27.1102 14.9371 18.3642 20.3093 16.9821 27.6592C16.902 28.0853 16.8816 28.5356 16.93 29.0115C17.6334 35.9337 21.6487 42.6419 23.3372 45.1989C23.8217 45.9327 24.4012 46.5848 25.0448 47.1841C27.2343 49.2227 32.7181 54.2552 36.7209 57.3036C39.0565 59.0824 42.0289 58.8418 44.5219 57.2914C48.3711 54.8975 53.369 55.1787 56.5064 58.4503C60.1504 62.2502 63.7306 67.0687 60.7025 68.9519L53.5407 73.4058C49.4627 75.942 44.3822 76.4654 40.0205 74.456C31.952 70.739 20.358 64.1592 12.8756 53.2562Z" fill="url(#paint0_linear_146_10)" stroke="url(#paint1_linear_146_10)" stroke-width="5"/>
<defs>
<linearGradient id="paint0_linear_146_10" x1="3.51787" y1="7.65225" x2="46.957" y2="77.5003" gradientUnits="userSpaceOnUse">
<stop stop-color="#00FA91" stop-opacity="0"/>
<stop offset="1" stop-color="#00B96B" stop-opacity="0.5"/>
</linearGradient>
<linearGradient id="paint1_linear_146_10" x1="3.51787" y1="7.65225" x2="46.957" y2="77.5003" gradientUnits="userSpaceOnUse">
<stop stop-color="white" stop-opacity="0.33"/>
<stop offset="1" stop-color="#00FF66"/>
</linearGradient>
</defs>
</svg>
