<svg width="91" height="79" viewBox="0 0 91 79" fill="none" xmlns="http://www.w3.org/2000/svg">
<path opacity="0.77" d="M35.669 56.2237L34.7305 69.8674C34.6581 70.9204 36.4839 69.5111 37.2719 68.8088L38.9493 67.314C44.3488 62.5021 52.4036 62.2413 58.1947 66.5741C61.9846 69.4096 65.7768 72.1761 68.1206 73.7126C72.8133 76.7888 74.4377 73.6372 74.6633 71.6769C78.9499 51.4704 87.6133 10.1528 87.9742 6.53374C88.3352 2.91468 84.8157 2.76388 83.0108 3.14087C57.6674 12.1885 6.48423 30.9172 4.49887 33.4505C4.06967 33.9982 3.75223 34.4923 3.52286 34.9342C2.60925 36.6943 4.34611 38.0506 6.24025 38.6379L18.6844 42.4965C22.8559 43.79 27.3787 43.2039 31.0821 40.889C46.7603 31.0893 70.1654 16.5124 71.2792 16.0338C72.5814 15.4743 72.4486 17.2873 71.3976 18.2382L40.5699 46.1301C37.692 48.734 35.9353 52.3519 35.669 56.2237Z" stroke="url(#paint0_linear_146_4)" stroke-width="6"/>
<defs>
<linearGradient id="paint0_linear_146_4" x1="42.1357" y1="2.62077" x2="42.1357" y2="75" gradientUnits="userSpaceOnUse">
<stop stop-color="#0057FF" stop-opacity="0.33"/>
<stop offset="0.702259" stop-color="#0057FF"/>
</linearGradient>
</defs>
</svg>
