<svg width="993" height="855" viewBox="0 0 993 855" fill="none" xmlns="http://www.w3.org/2000/svg">
<rect x="1.5" y="1.5" width="990" height="852" rx="148.5" fill="url(#paint0_linear_37_91)"/>
<g filter="url(#filter0_di_37_91)">
<path d="M716.942 143.405C743.138 98.4985 790.804 73.5752 810.167 69.0649C811.082 68.8518 811.975 68.5815 812.863 68.2741C830.217 62.2653 847.423 74.4652 856.916 83.204C861.68 87.5898 862.052 94.6843 858.54 100.125L839.786 129.182C833.765 138.511 819.797 138.275 811.678 130.701C804.237 123.759 795.099 118.656 786.826 123.644C767.151 135.506 753.41 158.081 750.353 163.408C749.915 164.17 749.573 164.971 749.303 165.808C747.148 172.478 737.094 204.062 734.944 219.185C734.358 223.306 736.654 226.944 740.151 229.201L755.884 239.356C761.283 242.841 763.871 249.376 761.938 255.504C757.011 271.123 746.586 298.22 735.361 290.976L701.867 269.358C697.832 266.753 695.275 262.404 695.032 257.608C693.816 233.571 693.025 184.407 716.942 143.405Z" fill="url(#paint1_linear_37_91)" shape-rendering="crispEdges"/>
<path d="M716.942 143.405C743.138 98.4985 790.804 73.5752 810.167 69.0649C811.082 68.8518 811.975 68.5815 812.863 68.2741C830.217 62.2653 847.423 74.4652 856.916 83.204C861.68 87.5898 862.052 94.6843 858.54 100.125L839.786 129.182C833.765 138.511 819.797 138.275 811.678 130.701C804.237 123.759 795.099 118.656 786.826 123.644C767.151 135.506 753.41 158.081 750.353 163.408C749.915 164.17 749.573 164.971 749.303 165.808C747.148 172.478 737.094 204.062 734.944 219.185C734.358 223.306 736.654 226.944 740.151 229.201L755.884 239.356C761.283 242.841 763.871 249.376 761.938 255.504C757.011 271.123 746.586 298.22 735.361 290.976L701.867 269.358C697.832 266.753 695.275 262.404 695.032 257.608C693.816 233.571 693.025 184.407 716.942 143.405Z" stroke="url(#paint2_linear_37_91)" stroke-width="5" shape-rendering="crispEdges"/>
</g>
<path d="M92 107.95V179.05C92 186.85 99.3 190.75 113.9 190.75C128.6 190.75 135.95 186.85 135.95 179.05V168.25C135.95 165.95 137.95 164.8 141.95 164.8C145.95 164.8 147.95 165.95 147.95 168.25V177.55C147.95 193.35 136.8 201.25 114.5 201.25C104.1 201.25 95.75 199.4 89.45 195.7C83.15 191.9 80 185.85 80 177.55V109.45C80 101.15 83.15 95.15 89.45 91.45C95.75 87.65 104.1 85.75 114.5 85.75C136.8 85.75 147.95 93.65 147.95 109.45V118.75C147.95 121.05 145.95 122.2 141.95 122.2C137.95 122.2 135.95 121.05 135.95 118.75V107.95C135.95 100.15 128.6 96.25 113.9 96.25C99.3 96.25 92 100.15 92 107.95ZM227.872 179.05V128.95C227.872 121.15 221.022 117.25 207.322 117.25C193.722 117.25 186.922 121.15 186.922 128.95V179.05C186.922 186.85 193.722 190.75 207.322 190.75C221.022 190.75 227.872 186.85 227.872 179.05ZM239.872 130.45V177.55C239.872 185.85 236.922 191.9 231.022 195.7C225.122 199.4 217.272 201.25 207.472 201.25C197.672 201.25 189.772 199.4 183.772 195.7C177.872 191.9 174.922 185.85 174.922 177.55V130.45C174.922 122.15 177.872 116.15 183.772 112.45C189.672 108.65 197.522 106.75 207.322 106.75C217.122 106.75 224.972 108.65 230.872 112.45C236.872 116.15 239.872 122.15 239.872 130.45ZM336.294 130.45V196.3C336.294 198.6 334.294 199.75 330.294 199.75C326.294 199.75 324.294 198.6 324.294 196.3V128.95C324.294 121.15 317.444 117.25 303.744 117.25C290.144 117.25 283.344 121.15 283.344 128.95V196.3C283.344 198.6 281.344 199.75 277.344 199.75C273.344 199.75 271.344 198.6 271.344 196.3V130.45C271.344 122.15 274.294 116.15 280.194 112.45C286.094 108.65 293.944 106.75 303.744 106.75C313.544 106.75 321.394 108.65 327.294 112.45C333.294 116.15 336.294 122.15 336.294 130.45ZM387.342 91.45V109H403.092C405.092 109 406.092 110.75 406.092 114.25C406.092 117.75 405.092 119.5 403.092 119.5H387.342V181.45C387.342 184.65 388.092 187.65 389.592 190.45C391.092 193.15 391.842 194.55 391.842 194.65C391.842 195.85 390.892 197.15 388.992 198.55C387.092 199.85 385.492 200.5 384.192 200.5C382.092 200.5 380.092 198.7 378.192 195.1C376.292 191.4 375.342 187.35 375.342 182.95V119.5H363.342C361.342 119.5 360.342 117.75 360.342 114.25C360.342 110.75 361.342 109 363.342 109H375.342V91.45C375.342 89.15 377.342 88 381.342 88C385.342 88 387.342 89.15 387.342 91.45ZM465.007 199H447.457C438.657 199 432.307 197.2 428.407 193.6C424.507 190 422.557 183.9 422.557 175.3V174.1C422.557 165.6 424.307 159.75 427.807 156.55C431.307 153.35 437.557 151.3 446.557 150.4L472.507 147.85V131.2C472.507 123.4 465.707 119.5 452.107 119.5H431.557C429.557 119.5 428.557 117.75 428.557 114.25C428.557 110.75 429.557 109 431.557 109H452.107C461.907 109 469.757 110.9 475.657 114.7C481.557 118.4 484.507 124.4 484.507 132.7V176.95C484.507 183.45 485.657 188.6 487.957 192.4C488.657 193.6 489.007 194.35 489.007 194.65C489.007 195.85 488.057 197.15 486.157 198.55C484.257 199.85 482.657 200.5 481.357 200.5C479.157 200.5 477.107 198.45 475.207 194.35C473.407 190.15 472.507 184.85 472.507 178.45V158.35L447.457 160.9C442.057 161.5 438.557 162.7 436.957 164.5C435.357 166.3 434.557 169.5 434.557 174.1V175.3C434.557 180.1 435.357 183.5 436.957 185.5C438.657 187.5 442.157 188.5 447.457 188.5H465.007C467.007 188.5 468.007 190.25 468.007 193.75C468.007 197.25 467.007 199 465.007 199ZM527.938 128.95V179.05C527.938 186.85 534.338 190.75 547.138 190.75C559.938 190.75 566.338 186.85 566.338 179.05V172.75C566.338 170.45 568.338 169.3 572.338 169.3C576.338 169.3 578.338 170.45 578.338 172.75V177.55C578.338 185.85 575.488 191.9 569.788 195.7C564.188 199.4 556.638 201.25 547.138 201.25C537.738 201.25 530.188 199.4 524.488 195.7C518.788 191.9 515.938 185.85 515.938 177.55V130.45C515.938 122.15 518.788 116.15 524.488 112.45C530.188 108.65 537.738 106.75 547.138 106.75C556.638 106.75 564.188 108.65 569.788 112.45C575.488 116.15 578.338 122.15 578.338 130.45V135.25C578.338 137.55 576.338 138.7 572.338 138.7C568.338 138.7 566.338 137.55 566.338 135.25V128.95C566.338 121.15 559.938 117.25 547.138 117.25C534.338 117.25 527.938 121.15 527.938 128.95ZM624.793 91.45V109H640.543C642.543 109 643.543 110.75 643.543 114.25C643.543 117.75 642.543 119.5 640.543 119.5H624.793V181.45C624.793 184.65 625.543 187.65 627.043 190.45C628.543 193.15 629.293 194.55 629.293 194.65C629.293 195.85 628.343 197.15 626.443 198.55C624.543 199.85 622.943 200.5 621.643 200.5C619.543 200.5 617.543 198.7 615.643 195.1C613.743 191.4 612.793 187.35 612.793 182.95V119.5H600.793C598.793 119.5 597.793 117.75 597.793 114.25C597.793 110.75 598.793 109 600.793 109H612.793V91.45C612.793 89.15 614.793 88 618.793 88C622.793 88 624.793 89.15 624.793 91.45Z" fill="url(#paint3_linear_37_91)"/>
<path d="M122.3 370.8V441.2C122.3 442.733 120.967 443.5 118.3 443.5C115.633 443.5 114.3 442.733 114.3 441.2V410.1H84V441.2C84 442.733 82.6667 443.5 80 443.5C77.3333 443.5 76 442.733 76 441.2V370.8C76 369.267 77.3333 368.5 80 368.5C82.6667 368.5 84 369.267 84 370.8V403.1H114.3V370.8C114.3 369.267 115.633 368.5 118.3 368.5C120.967 368.5 122.3 369.267 122.3 370.8ZM187.062 397.1V400.1C187.062 405.767 185.895 409.667 183.562 411.8C181.228 413.933 176.962 415.3 170.762 415.9L151.262 417.8V429.7C151.262 434.9 155.595 437.5 164.262 437.5C174.128 437.5 179.062 435.233 179.062 430.7V426.9C179.062 425.367 180.395 424.6 183.062 424.6C185.728 424.6 187.062 425.367 187.062 426.9V429.7C187.062 439.567 179.728 444.5 165.062 444.5C158.595 444.5 153.328 443.233 149.262 440.7C145.262 438.167 143.262 434.167 143.262 428.7V397.3C143.262 391.767 145.395 387.767 149.662 385.3C153.928 382.767 159.495 381.5 166.362 381.5C173.228 381.5 178.395 382.7 181.862 385.1C185.328 387.5 187.062 391.5 187.062 397.1ZM151.262 396.3V410.8L170.062 408.9C173.862 408.5 176.295 407.7 177.362 406.5C178.495 405.3 179.062 403.167 179.062 400.1V396.3C179.062 391.1 174.428 388.5 165.162 388.5C155.895 388.5 151.262 391.1 151.262 396.3ZM216.031 365.3V431.3C216.031 433.433 216.531 435.433 217.531 437.3C218.531 439.1 219.031 440.033 219.031 440.1C219.031 440.9 218.398 441.767 217.131 442.7C215.865 443.567 214.798 444 213.931 444C212.531 444 211.198 442.8 209.931 440.4C208.665 437.933 208.031 435.233 208.031 432.3V365.3C208.031 363.767 209.365 363 212.031 363C214.698 363 216.031 363.767 216.031 365.3ZM251.012 436H259.712C268.778 436 273.312 433.4 273.312 428.2V396.3C273.312 391.1 268.745 388.5 259.612 388.5C250.545 388.5 246.012 391.1 246.012 396.3V466.2C246.012 467.733 244.678 468.5 242.012 468.5C239.345 468.5 238.012 467.733 238.012 466.2V397.3C238.012 391.767 239.978 387.767 243.912 385.3C247.845 382.767 253.078 381.5 259.612 381.5C266.145 381.5 271.378 382.767 275.312 385.3C279.312 387.767 281.312 391.767 281.312 397.3V427.2C281.312 432.733 279.345 436.767 275.412 439.3C271.478 441.767 266.245 443 259.712 443H251.012C249.678 443 249.012 441.833 249.012 439.5C249.012 437.167 249.678 436 251.012 436ZM352.281 408H360.981C370.048 408 374.581 405.4 374.581 400.2V382.3C374.581 377.1 370.015 374.5 360.881 374.5C351.815 374.5 347.281 377.1 347.281 382.3V441.2C347.281 442.733 345.948 443.5 343.281 443.5C340.615 443.5 339.281 442.733 339.281 441.2V383.3C339.281 377.767 341.248 373.767 345.181 371.3C349.115 368.767 354.348 367.5 360.881 367.5C367.415 367.5 372.648 368.767 376.581 371.3C380.581 373.767 382.581 377.767 382.581 383.3V399.2C382.581 404.733 380.615 408.767 376.681 411.3C372.748 413.767 367.515 415 360.981 415H352.281C350.948 415 350.281 413.833 350.281 411.5C350.281 409.167 350.948 408 352.281 408ZM444.909 397.3V441.2C444.909 442.733 443.576 443.5 440.909 443.5C438.243 443.5 436.909 442.733 436.909 441.2V396.3C436.909 391.1 432.343 388.5 423.209 388.5C414.143 388.5 409.609 391.1 409.609 396.3V441.2C409.609 442.733 408.276 443.5 405.609 443.5C402.943 443.5 401.609 442.733 401.609 441.2V365.3C401.609 363.767 402.943 363 405.609 363C408.276 363 409.609 363.767 409.609 365.3V385.6C413.276 382.867 418.076 381.5 424.009 381.5C430.009 381.5 434.976 382.767 438.909 385.3C442.909 387.767 444.909 391.767 444.909 397.3ZM501.218 429.7V396.3C501.218 391.1 496.651 388.5 487.518 388.5C478.451 388.5 473.918 391.1 473.918 396.3V429.7C473.918 434.9 478.451 437.5 487.518 437.5C496.651 437.5 501.218 434.9 501.218 429.7ZM509.218 397.3V428.7C509.218 434.233 507.251 438.267 503.318 440.8C499.385 443.267 494.151 444.5 487.618 444.5C481.085 444.5 475.818 443.267 471.818 440.8C467.885 438.267 465.918 434.233 465.918 428.7V397.3C465.918 391.767 467.885 387.767 471.818 385.3C475.751 382.767 480.985 381.5 487.518 381.5C494.051 381.5 499.285 382.767 503.218 385.3C507.218 387.767 509.218 391.767 509.218 397.3ZM573.499 397.3V441.2C573.499 442.733 572.166 443.5 569.499 443.5C566.833 443.5 565.499 442.733 565.499 441.2V396.3C565.499 391.1 560.933 388.5 551.799 388.5C542.733 388.5 538.199 391.1 538.199 396.3V441.2C538.199 442.733 536.866 443.5 534.199 443.5C531.533 443.5 530.199 442.733 530.199 441.2V397.3C530.199 391.767 532.166 387.767 536.099 385.3C540.033 382.767 545.266 381.5 551.799 381.5C558.333 381.5 563.566 382.767 567.499 385.3C571.499 387.767 573.499 391.767 573.499 397.3ZM638.331 397.1V400.1C638.331 405.767 637.165 409.667 634.831 411.8C632.498 413.933 628.231 415.3 622.031 415.9L602.531 417.8V429.7C602.531 434.9 606.865 437.5 615.531 437.5C625.398 437.5 630.331 435.233 630.331 430.7V426.9C630.331 425.367 631.665 424.6 634.331 424.6C636.998 424.6 638.331 425.367 638.331 426.9V429.7C638.331 439.567 630.998 444.5 616.331 444.5C609.865 444.5 604.598 443.233 600.531 440.7C596.531 438.167 594.531 434.167 594.531 428.7V397.3C594.531 391.767 596.665 387.767 600.931 385.3C605.198 382.767 610.765 381.5 617.631 381.5C624.498 381.5 629.665 382.7 633.131 385.1C636.598 387.5 638.331 391.5 638.331 397.1ZM602.531 396.3V410.8L621.331 408.9C625.131 408.5 627.565 407.7 628.631 406.5C629.765 405.3 630.331 403.167 630.331 400.1V396.3C630.331 391.1 625.698 388.5 616.431 388.5C607.165 388.5 602.531 391.1 602.531 396.3ZM91.5 552.4V535.4H74.5C73.1667 535.4 72.5 534.233 72.5 531.9C72.5 529.567 73.1667 528.4 74.5 528.4H91.5V511.4C91.5 510.067 92.6667 509.4 95 509.4C97.3333 509.4 98.5 510.067 98.5 511.4V528.4H115.5C116.833 528.4 117.5 529.567 117.5 531.9C117.5 534.233 116.833 535.4 115.5 535.4H98.5V552.4C98.5 553.733 97.3333 554.4 95 554.4C92.6667 554.4 91.5 553.733 91.5 552.4ZM150.461 569C150.194 569.667 149.661 570 148.861 570C148.061 570 147.061 569.8 145.861 569.4C143.928 568.533 142.961 567.633 142.961 566.7C142.961 566.5 143.028 566.267 143.161 566L161.661 524.8C165.394 516.6 167.261 511.1 167.261 508.3V507.8C167.261 505.733 166.694 504.267 165.561 503.4C164.494 502.467 162.194 502 158.661 502H134.961C133.628 502 132.961 500.833 132.961 498.5C132.961 496.167 133.628 495 134.961 495H158.661C164.594 495 168.828 496 171.361 498C173.961 500 175.261 503.2 175.261 507.6V508.9C175.261 511.967 173.128 518.3 168.861 527.9L150.461 569ZM238.522 551.7V554.7C238.522 560.167 236.289 564.167 231.822 566.7C227.355 569.233 221.622 570.5 214.622 570.5C207.622 570.5 201.955 569.233 197.622 566.7C193.355 564.167 191.222 560.167 191.222 554.7V551.7C191.222 547.7 193.355 543.5 197.622 539.1L206.022 530.6L200.222 526.8C197.222 524.8 195.055 522.467 193.722 519.8C192.389 517.067 191.722 514.567 191.722 512.3V509.3C191.722 505.567 192.822 502.5 195.022 500.1C197.222 497.633 199.989 495.933 203.322 495C206.722 494 210.689 493.5 215.222 493.5C222.155 493.5 227.689 494.767 231.822 497.3C235.955 499.767 238.022 503.767 238.022 509.3V512.3C238.022 516.3 235.889 520.5 231.622 524.9L223.622 533.1L230.022 537.2C233.022 539.2 235.189 541.567 236.522 544.3C237.855 546.967 238.522 549.433 238.522 551.7ZM199.222 552.2V555.7C199.222 558.433 200.655 560.433 203.522 561.7C206.455 562.9 210.155 563.5 214.622 563.5C219.155 563.5 222.922 562.867 225.922 561.6C228.989 560.333 230.522 558.367 230.522 555.7V552.2C230.522 548.333 228.655 545.167 224.922 542.7L212.222 534.6L204.822 542.2C202.689 544.4 201.222 546.2 200.422 547.6C199.622 548.933 199.222 550.467 199.222 552.2ZM230.022 511.8V508.3C230.022 503.1 225.055 500.5 215.122 500.5C210.655 500.5 206.955 501.133 204.022 502.4C201.155 503.6 199.722 505.567 199.722 508.3V511.8C199.722 515.667 201.589 518.833 205.322 521.3L217.322 529.1L224.422 521.8C226.555 519.6 228.022 517.833 228.822 516.5C229.622 515.1 230.022 513.533 230.022 511.8ZM298.183 509.3V554.7C298.183 560.233 296.016 564.267 291.683 566.8C287.416 569.267 281.749 570.5 274.683 570.5C259.483 570.5 251.883 565.233 251.883 554.7V509.3C251.883 503.767 254.016 499.767 258.283 497.3C262.616 494.767 268.316 493.5 275.383 493.5C290.583 493.5 298.183 498.767 298.183 509.3ZM290.183 555.7V508.3C290.183 505.7 288.849 503.7 286.183 502.3L270.083 563.3C271.016 563.433 272.549 563.5 274.683 563.5C285.016 563.5 290.183 560.9 290.183 555.7ZM259.883 508.3V555.7C259.883 558.367 261.149 560.333 263.683 561.6L279.683 500.7C277.949 500.567 276.516 500.5 275.383 500.5C265.049 500.5 259.883 503.1 259.883 508.3ZM358.144 509.3V554.7C358.144 560.233 355.977 564.267 351.644 566.8C347.377 569.267 341.71 570.5 334.644 570.5C319.444 570.5 311.844 565.233 311.844 554.7V509.3C311.844 503.767 313.977 499.767 318.244 497.3C322.577 494.767 328.277 493.5 335.344 493.5C350.544 493.5 358.144 498.767 358.144 509.3ZM350.144 555.7V508.3C350.144 505.7 348.81 503.7 346.144 502.3L330.044 563.3C330.977 563.433 332.51 563.5 334.644 563.5C344.977 563.5 350.144 560.9 350.144 555.7ZM319.844 508.3V555.7C319.844 558.367 321.11 560.333 323.644 561.6L339.644 500.7C337.91 500.567 336.477 500.5 335.344 500.5C325.01 500.5 319.844 503.1 319.844 508.3ZM374.805 524.3V512.6C374.805 506.4 376.005 501.933 378.405 499.2C380.805 496.4 384.871 495 390.605 495H413.805C415.138 495 415.805 496.167 415.805 498.5C415.805 500.833 415.138 502 413.805 502H390.605C387.738 502 385.705 502.8 384.505 504.4C383.371 506 382.805 508.733 382.805 512.6V524.8L398.905 528.3C406.638 529.9 411.405 531.4 413.205 532.8C415.805 534.8 417.338 536.733 417.805 538.6C418.271 540.4 418.505 542.267 418.505 544.2V554.7C418.505 560.167 416.305 564.167 411.905 566.7C407.571 569.233 402.071 570.5 395.405 570.5C388.805 570.5 383.371 569.233 379.105 566.7C374.905 564.167 372.805 560.167 372.805 554.7V550.3C372.805 548.767 374.138 548 376.805 548C379.471 548 380.805 548.767 380.805 550.3V555.7C380.805 558.433 382.171 560.433 384.905 561.7C387.705 562.9 391.205 563.5 395.405 563.5C399.671 563.5 403.238 562.867 406.105 561.6C409.038 560.333 410.505 558.367 410.505 555.7V543.4C410.505 541.2 409.605 539.6 407.805 538.6C406.071 537.533 403.105 536.533 398.905 535.6L379.605 531.4C377.738 531 376.471 530.333 375.805 529.4C375.138 528.467 374.805 526.767 374.805 524.3ZM434.766 524.3V512.6C434.766 506.4 435.966 501.933 438.366 499.2C440.766 496.4 444.832 495 450.566 495H473.766C475.099 495 475.766 496.167 475.766 498.5C475.766 500.833 475.099 502 473.766 502H450.566C447.699 502 445.666 502.8 444.466 504.4C443.332 506 442.766 508.733 442.766 512.6V524.8L458.866 528.3C466.599 529.9 471.366 531.4 473.166 532.8C475.766 534.8 477.299 536.733 477.766 538.6C478.232 540.4 478.466 542.267 478.466 544.2V554.7C478.466 560.167 476.266 564.167 471.866 566.7C467.532 569.233 462.032 570.5 455.366 570.5C448.766 570.5 443.332 569.233 439.066 566.7C434.866 564.167 432.766 560.167 432.766 554.7V550.3C432.766 548.767 434.099 548 436.766 548C439.432 548 440.766 548.767 440.766 550.3V555.7C440.766 558.433 442.132 560.433 444.866 561.7C447.666 562.9 451.166 563.5 455.366 563.5C459.632 563.5 463.199 562.867 466.066 561.6C468.999 560.333 470.466 558.367 470.466 555.7V543.4C470.466 541.2 469.566 539.6 467.766 538.6C466.032 537.533 463.066 536.533 458.866 535.6L439.566 531.4C437.699 531 436.432 530.333 435.766 529.4C435.099 528.467 434.766 526.767 434.766 524.3ZM494.727 524.3V512.6C494.727 506.4 495.927 501.933 498.327 499.2C500.727 496.4 504.793 495 510.527 495H533.727C535.06 495 535.727 496.167 535.727 498.5C535.727 500.833 535.06 502 533.727 502H510.527C507.66 502 505.627 502.8 504.427 504.4C503.293 506 502.727 508.733 502.727 512.6V524.8L518.827 528.3C526.56 529.9 531.327 531.4 533.127 532.8C535.727 534.8 537.26 536.733 537.727 538.6C538.193 540.4 538.427 542.267 538.427 544.2V554.7C538.427 560.167 536.227 564.167 531.827 566.7C527.493 569.233 521.993 570.5 515.327 570.5C508.727 570.5 503.293 569.233 499.027 566.7C494.827 564.167 492.727 560.167 492.727 554.7V550.3C492.727 548.767 494.06 548 496.727 548C499.393 548 500.727 548.767 500.727 550.3V555.7C500.727 558.433 502.093 560.433 504.827 561.7C507.627 562.9 511.127 563.5 515.327 563.5C519.593 563.5 523.16 562.867 526.027 561.6C528.96 560.333 530.427 558.367 530.427 555.7V543.4C530.427 541.2 529.527 539.6 527.727 538.6C525.993 537.533 523.027 536.533 518.827 535.6L499.527 531.4C497.66 531 496.393 530.333 495.727 529.4C495.06 528.467 494.727 526.767 494.727 524.3ZM597.388 543.4V554.7C597.388 560.167 595.188 564.167 590.788 566.7C586.454 569.233 580.954 570.5 574.288 570.5C567.688 570.5 562.254 569.233 557.988 566.7C553.788 564.167 551.688 560.167 551.688 554.7V550.3C551.688 548.767 553.021 548 555.688 548C558.354 548 559.688 548.767 559.688 550.3V555.7C559.688 558.433 561.054 560.433 563.788 561.7C566.588 562.9 570.088 563.5 574.288 563.5C578.554 563.5 582.121 562.867 584.988 561.6C587.921 560.333 589.388 558.367 589.388 555.7V543.4C589.388 540.333 588.854 538.267 587.788 537.2C586.788 536.133 584.454 535.6 580.788 535.6H563.588C562.254 535.6 561.588 534.433 561.588 532.1C561.588 529.767 562.254 528.6 563.588 528.6H577.688L582.388 523.8C586.121 520 587.988 516.333 587.988 512.8V511.6C587.988 508.2 587.388 505.767 586.188 504.3C585.054 502.767 583.054 502 580.188 502H556.988C555.654 502 554.988 500.833 554.988 498.5C554.988 496.167 555.654 495 556.988 495H580.188C585.921 495 589.988 496.333 592.388 499C594.788 501.667 595.988 505.867 595.988 511.6V513.3C595.988 515.233 595.388 517.5 594.188 520.1C593.054 522.633 591.521 524.9 589.588 526.9L587.388 529.1C590.921 529.767 593.454 531.2 594.988 533.4C596.588 535.6 597.388 538.933 597.388 543.4ZM614.648 524.3V512.6C614.648 506.4 615.848 501.933 618.248 499.2C620.648 496.4 624.715 495 630.448 495H653.648C654.982 495 655.648 496.167 655.648 498.5C655.648 500.833 654.982 502 653.648 502H630.448C627.582 502 625.548 502.8 624.348 504.4C623.215 506 622.648 508.733 622.648 512.6V524.8L638.748 528.3C646.482 529.9 651.248 531.4 653.048 532.8C655.648 534.8 657.182 536.733 657.648 538.6C658.115 540.4 658.348 542.267 658.348 544.2V554.7C658.348 560.167 656.148 564.167 651.748 566.7C647.415 569.233 641.915 570.5 635.248 570.5C628.648 570.5 623.215 569.233 618.948 566.7C614.748 564.167 612.648 560.167 612.648 554.7V550.3C612.648 548.767 613.982 548 616.648 548C619.315 548 620.648 548.767 620.648 550.3V555.7C620.648 558.433 622.015 560.433 624.748 561.7C627.548 562.9 631.048 563.5 635.248 563.5C639.515 563.5 643.082 562.867 645.948 561.6C648.882 560.333 650.348 558.367 650.348 555.7V543.4C650.348 541.2 649.448 539.6 647.648 538.6C645.915 537.533 642.948 536.533 638.748 535.6L619.448 531.4C617.582 531 616.315 530.333 615.648 529.4C614.982 528.467 614.648 526.767 614.648 524.3ZM717.309 543.4V554.7C717.309 560.167 715.109 564.167 710.709 566.7C706.376 569.233 700.876 570.5 694.209 570.5C687.609 570.5 682.176 569.233 677.909 566.7C673.709 564.167 671.609 560.167 671.609 554.7V550.3C671.609 548.767 672.943 548 675.609 548C678.276 548 679.609 548.767 679.609 550.3V555.7C679.609 558.433 680.976 560.433 683.709 561.7C686.509 562.9 690.009 563.5 694.209 563.5C698.476 563.5 702.043 562.867 704.909 561.6C707.843 560.333 709.309 558.367 709.309 555.7V543.4C709.309 540.333 708.776 538.267 707.709 537.2C706.709 536.133 704.376 535.6 700.709 535.6H683.509C682.176 535.6 681.509 534.433 681.509 532.1C681.509 529.767 682.176 528.6 683.509 528.6H697.609L702.309 523.8C706.043 520 707.909 516.333 707.909 512.8V511.6C707.909 508.2 707.309 505.767 706.109 504.3C704.976 502.767 702.976 502 700.109 502H676.909C675.576 502 674.909 500.833 674.909 498.5C674.909 496.167 675.576 495 676.909 495H700.109C705.843 495 709.909 496.333 712.309 499C714.709 501.667 715.909 505.867 715.909 511.6V513.3C715.909 515.233 715.309 517.5 714.109 520.1C712.976 522.633 711.443 524.9 709.509 526.9L707.309 529.1C710.843 529.767 713.376 531.2 714.909 533.4C716.509 535.6 717.309 538.933 717.309 543.4ZM734.57 524.3V512.6C734.57 506.4 735.77 501.933 738.17 499.2C740.57 496.4 744.637 495 750.37 495H773.57C774.904 495 775.57 496.167 775.57 498.5C775.57 500.833 774.904 502 773.57 502H750.37C747.504 502 745.47 502.8 744.27 504.4C743.137 506 742.57 508.733 742.57 512.6V524.8L758.67 528.3C766.404 529.9 771.17 531.4 772.97 532.8C775.57 534.8 777.104 536.733 777.57 538.6C778.037 540.4 778.27 542.267 778.27 544.2V554.7C778.27 560.167 776.07 564.167 771.67 566.7C767.337 569.233 761.837 570.5 755.17 570.5C748.57 570.5 743.137 569.233 738.87 566.7C734.67 564.167 732.57 560.167 732.57 554.7V550.3C732.57 548.767 733.904 548 736.57 548C739.237 548 740.57 548.767 740.57 550.3V555.7C740.57 558.433 741.937 560.433 744.67 561.7C747.47 562.9 750.97 563.5 755.17 563.5C759.437 563.5 763.004 562.867 765.87 561.6C768.804 560.333 770.27 558.367 770.27 555.7V543.4C770.27 541.2 769.37 539.6 767.57 538.6C765.837 537.533 762.87 536.533 758.67 535.6L739.37 531.4C737.504 531 736.237 530.333 735.57 529.4C734.904 528.467 734.57 526.767 734.57 524.3Z" fill="url(#paint4_linear_37_91)"/>
<rect x="1.5" y="1.5" width="990" height="852" rx="148.5" stroke="url(#paint5_linear_37_91)" stroke-width="3"/>
<defs>
<filter id="filter0_di_37_91" x="674.046" y="45.171" width="201.329" height="260.511" filterUnits="userSpaceOnUse" color-interpolation-filters="sRGB">
<feFlood flood-opacity="0" result="BackgroundImageFix"/>
<feColorMatrix in="SourceAlpha" type="matrix" values="0 0 0 0 0 0 0 0 0 0 0 0 0 0 0 0 0 0 127 0" result="hardAlpha"/>
<feOffset dx="-3" dy="-4"/>
<feGaussianBlur stdDeviation="7.5"/>
<feComposite in2="hardAlpha" operator="out"/>
<feColorMatrix type="matrix" values="0 0 0 0 0 0 0 0 0 0.7 0 0 0 0 0.28 0 0 0 0.75 0"/>
<feBlend mode="normal" in2="BackgroundImageFix" result="effect1_dropShadow_37_91"/>
<feBlend mode="normal" in="SourceGraphic" in2="effect1_dropShadow_37_91" result="shape"/>
<feColorMatrix in="SourceAlpha" type="matrix" values="0 0 0 0 0 0 0 0 0 0 0 0 0 0 0 0 0 0 127 0" result="hardAlpha"/>
<feOffset/>
<feGaussianBlur stdDeviation="50"/>
<feComposite in2="hardAlpha" operator="arithmetic" k2="-1" k3="1"/>
<feColorMatrix type="matrix" values="0 0 0 0 0 0 0 0 0 0 0 0 0 0 0 0 0 0 0.25 0"/>
<feBlend mode="normal" in2="shape" result="effect2_innerShadow_37_91"/>
</filter>
<linearGradient id="paint0_linear_37_91" x1="496" y1="-26" x2="496" y2="882" gradientUnits="userSpaceOnUse">
<stop stop-color="white"/>
<stop offset="0.0001" stop-opacity="0.4"/>
<stop offset="1" stop-color="#3BF965" stop-opacity="0.1"/>
</linearGradient>
<linearGradient id="paint1_linear_37_91" x1="826.962" y1="60.8636" x2="695.181" y2="265.042" gradientUnits="userSpaceOnUse">
<stop stop-color="#00FA91" stop-opacity="0"/>
<stop offset="1" stop-color="#00B96B" stop-opacity="0.5"/>
</linearGradient>
<linearGradient id="paint2_linear_37_91" x1="826.962" y1="60.8636" x2="695.181" y2="265.042" gradientUnits="userSpaceOnUse">
<stop stop-color="white" stop-opacity="0.33"/>
<stop offset="1" stop-color="#00FF66"/>
</linearGradient>
<linearGradient id="paint3_linear_37_91" x1="360" y1="50" x2="360" y2="212" gradientUnits="userSpaceOnUse">
<stop/>
<stop offset="1" stop-color="#3BF965"/>
</linearGradient>
<linearGradient id="paint4_linear_37_91" x1="430.5" y1="343" x2="430.5" y2="593" gradientUnits="userSpaceOnUse">
<stop/>
<stop offset="1" stop-color="#3BF965"/>
</linearGradient>
<linearGradient id="paint5_linear_37_91" x1="496" y1="869" x2="496" y2="-35" gradientUnits="userSpaceOnUse">
<stop offset="0.286458"/>
<stop offset="1" stop-color="#3BF965" stop-opacity="0.12"/>
</linearGradient>
</defs>
</svg>
